<?xml version="1.0" encoding="utf-8"?>
<!-- Generator: Adobe Illustrator 14.0.0, SVG Export Plug-In . SVG Version: 6.00 Build 43363)  -->
<svg version="1.2" baseProfile="tiny" xmlns="http://www.w3.org/2000/svg" xmlns:xlink="http://www.w3.org/1999/xlink" x="0px"
	 y="0px" width="100px" height="100px" viewBox="0 0 100 100" xml:space="preserve">
<g id="ombra">
</g>
<g id="bordi">
	<path fill="#9E1D22" stroke="#9E1C20" d="M40.417,27.75c0,0-13,16.667-11.667,31s5.333,16.667,8,20s11.333,8.333,11.333,8.333
		s-8.667,0.333-15.333-3s-13-10.333-13-24S40.417,27.75,40.417,27.75z"/>
	<path fill="#9E1D22" stroke="#9E1C20" d="M76.749,43.083c0,0,2.779,10.005,2.334,17.333c-0.834,13.75-15,24-15,24
		s-2.092-4.35-1.707-10.338C63.042,63.745,76.749,43.083,76.749,43.083z"/>
	<path fill="#9E1D22" stroke="#9E1C20" d="M58.751,9.083c0,0,12,11.667,12,23.667S54.083,62.416,54.083,73.416
		s3.667,13.333,3.667,13.333s-23.833-9.689-22.667-30.667c1-18,16.333-26.667,21-33.667C60.751,15.416,58.751,9.083,58.751,9.083z"
		/>
</g>
<g id="fiamma">
	<linearGradient id="SVGID_1_" gradientUnits="userSpaceOnUse" x1="53.813" y1="86.6665" x2="53.813" y2="8.9995">
		<stop  offset="0" style="stop-color:#C31D1E"/>
		<stop  offset="1" style="stop-color:#EC2526"/>
	</linearGradient>
	<path fill="url(#SVGID_1_)" d="M59.667,9c0,0,12,11.667,12,23.667S55,62.333,55,73.333s3.667,13.333,3.667,13.333
		S34.834,76.978,36,56c1-18,16.333-26.667,21-33.667C61.667,15.333,59.667,9,59.667,9z"/>
	<linearGradient id="SVGID_2_" gradientUnits="userSpaceOnUse" x1="34.4995" y1="87.0088" x2="34.4995" y2="27.6665">
		<stop  offset="0" style="stop-color:#C31D1E"/>
		<stop  offset="1" style="stop-color:#EC2526"/>
	</linearGradient>
	<path fill="url(#SVGID_2_)" d="M41,27.667c0,0-13,16.667-11.667,31s5.333,16.667,8,20S48.667,87,48.667,87S40,87.333,33.333,84
		s-13-10.333-13-24S41,27.667,41,27.667z"/>
	<linearGradient id="SVGID_3_" gradientUnits="userSpaceOnUse" x1="71.3135" y1="84.9995" x2="71.3135" y2="43.6665">
		<stop  offset="0" style="stop-color:#C31D1E"/>
		<stop  offset="1" style="stop-color:#EC2526"/>
	</linearGradient>
	<path fill="url(#SVGID_3_)" d="M77.333,43.667c0,0,2.778,10.005,2.334,17.333c-0.834,13.75-15,24-15,24s-2.093-4.35-1.707-10.338
		C63.626,64.328,77.333,43.667,77.333,43.667z"/>
	<linearGradient id="SVGID_4_" gradientUnits="userSpaceOnUse" x1="52.3755" y1="75.4995" x2="52.3755" y2="24.4995">
		<stop  offset="0" style="stop-color:#CDBD11"/>
		<stop  offset="0.2003" style="stop-color:#DECC11"/>
		<stop  offset="0.45" style="stop-color:#EED90E"/>
		<stop  offset="0.7112" style="stop-color:#F8E20B"/>
		<stop  offset="1" style="stop-color:#FDE609"/>
	</linearGradient>
	<path fill="url(#SVGID_4_)" d="M62.333,24.5c0,0,2,5.97,2,13c0,7.029-13.498,19.794-14.75,28.75c-0.892,6.382,0.25,9.25,0.25,9.25
		s-10.064-9.159-9.382-21.448C41.037,43.507,51.82,36.827,55.583,33C59.038,29.484,62.333,24.5,62.333,24.5z"/>
	<linearGradient id="SVGID_5_" gradientUnits="userSpaceOnUse" x1="28.3735" y1="79.3745" x2="28.3735" y2="45.3711">
		<stop  offset="0" style="stop-color:#CDBD11"/>
		<stop  offset="0.2003" style="stop-color:#DECC11"/>
		<stop  offset="0.45" style="stop-color:#EED90E"/>
		<stop  offset="0.7112" style="stop-color:#F8E20B"/>
		<stop  offset="1" style="stop-color:#FDE609"/>
	</linearGradient>
	<path fill="url(#SVGID_5_)" d="M28.668,45.371c0,0-2.808,7.081-2.46,14.378c0.348,7.298,1.557,10.429,2.25,12.125
		c0.695,1.697,5,7.5,5,7.5s-3.465-0.803-6.125-3.75c-1.626-1.801-4.044-6.833-4.044-13.791
		C23.289,54.875,28.668,45.371,28.668,45.371z"/>
	<linearGradient id="SVGID_6_" gradientUnits="userSpaceOnUse" x1="71.1797" y1="78.0776" x2="71.1797" y2="53.6372">
		<stop  offset="0" style="stop-color:#CDBD11"/>
		<stop  offset="0.2003" style="stop-color:#DECC11"/>
		<stop  offset="0.45" style="stop-color:#EED90E"/>
		<stop  offset="0.7112" style="stop-color:#F8E20B"/>
		<stop  offset="1" style="stop-color:#FDE609"/>
	</linearGradient>
	<path fill="url(#SVGID_6_)" d="M74.739,53.637c0,0,1.644,5.916,1.38,10.25c-0.493,8.13-8.869,14.191-8.869,14.191
		s-1.237-2.572-1.01-6.113C66.634,65.854,74.739,53.637,74.739,53.637z"/>
</g>
</svg>
